Patient4_TMGait_0pt8_01_left_26_GRF.mot
version=1
nRows=78
nColumns=19
inDegrees=no
endheader
time	F1x	F1y	F1z	M1x	M1y	M1z	F2x	F2y	F2z	M2x	M2y	M2z	EC1x	EC1y	EC1z	EC2x	EC2y	EC2z
28.47	2.3589	3.8623	7.4385	-3.2779	-6.7367	13.007	-12.504	726.3903	-81.0721	295.5306	89.3264	835.4911	-0.0592	0.0182	-0.0073	-0.0462	0.0165	0.9585
28.4816	1.428	3.5678	5.0466	-2.5188	-4.647	9.9204	-13.6374	724.1971	-73.5609	293.8805	83.7003	829.1494	-0.0592	0.0182	-0.0073	-0.0462	0.0165	0.9585
28.4931	0.65595	3.3527	3.031	-1.8981	-2.8744	7.4113	-14.2635	724.1161	-66.773	293.2644	78.261	824.4948	-0.0592	0.0182	-0.0073	-0.0462	0.0165	0.9585
28.5047	0.088103	3.2303	1.5	-1.4465	-1.5194	5.5942	-14.2945	726.4869	-61.1601	293.8477	73.3485	822.0485	-0.0592	0.0182	-0.0073	-0.0462	0.0165	0.9585
28.5163	-0.3203	3.2021	0.4445	-1.1557	-0.59057	4.4561	-13.7334	731.1234	-56.9238	295.5157	69.1867	821.7458	-0.0592	0.0182	-0.0073	-0.0462	0.0165	0.9585
28.5279	-0.58419	3.2386	-0.20396	-0.99603	-0.033195	3.8474	-12.6126	737.3934	-54.0704	297.9465	65.8672	822.9784	-0.0592	0.0182	-0.0073	-0.0462	0.0165	0.9585
28.5394	-0.78343	3.3112	-0.53823	-0.93132	0.21968	3.6196	-10.9879	744.44	-52.4871	300.7245	63.3808	824.8597	-0.0592	0.0182	-0.0073	-0.0462	0.0165	0.9585
28.551	-0.9383	3.3623	-0.64442	-0.91781	0.24491	3.5742	-8.876	751.3853	-51.9634	303.4418	61.6021	826.4707	-0.0592	0.0182	-0.0073	-0.0462	0.0165	0.9585
28.5626	-1.106	3.331	-0.59854	-0.91225	0.10408	3.5527	-6.3053	757.4614	-52.2661	305.7537	60.3674	827.0176	-0.0592	0.0182	-0.0073	-0.0462	0.0165	0.9585
28.5741	-1.3037	3.1141	-0.45122	-0.86467	-0.15484	3.3523	-3.2796	762.0976	-53.1664	307.4138	59.4925	825.9056	-0.0592	0.0182	-0.0073	-0.0462	0.0165	0.9585
28.5857	-1.5597	2.6238	-0.24885	-0.72961	-0.48939	2.8285	0.18828	764.9768	-54.4805	308.2878	58.8263	822.8303	-0.0592	0.0182	-0.0073	-0.0462	0.0165	0.9585
28.5973	-1.8456	1.7557	-0.020139	-0.46087	-0.85848	1.7976	4.0618	766.0465	-56.0598	308.3601	58.2498	817.7743	-0.0592	0.0182	-0.0073	-0.0462	0.0165	0.9585
28.6089	-2.1403	0.43008	0.20363	-0.023453	-1.2199	0.14978	8.2628	765.5283	-57.7997	307.7274	57.6905	811.0206	-0.0592	0.0182	-0.0073	-0.0462	0.0165	0.9585
28.6204	-2.3389	-1.4099	0.39943	0.60545	-1.5115	-2.1934	12.6605	763.7679	-59.6144	306.5432	57.1201	802.9988	-0.0592	0.0182	-0.0073	-0.0462	0.0165	0.9585
28.632	-2.3313	-3.7309	0.52163	1.4157	-1.6404	-5.1696	17.0711	761.071	-61.4275	304.9456	56.5418	794.117	-0.0592	0.0182	-0.0073	-0.0462	0.0165	0.9585
28.6436	-1.9277	-6.3738	0.53173	2.3484	-1.4844	-8.5732	21.2717	757.5646	-63.1899	302.997	56.0008	784.6196	-0.0592	0.0182	-0.0073	-0.0462	0.0165	0.9585
28.6551	-0.91844	-8.9213	0.35867	3.2513	-0.87231	-11.8589	25.0335	753.1586	-64.8597	300.6699	55.5489	774.5179	-0.0592	0.0182	-0.0073	-0.0462	0.0165	0.9585
28.6667	0.9546	-10.6581	-0.066994	3.8585	0.38233	-14.1178	28.1814	747.6386	-66.4234	297.8834	55.2477	763.6694	-0.0592	0.0182	-0.0073	-0.0462	0.0165	0.9585
28.6783	3.9306	-10.4464	-0.84133	3.7517	2.4869	-13.8708	30.6006	740.8355	-67.8537	294.5723	55.1209	751.969	-0.0592	0.0182	-0.0073	-0.0462	0.0165	0.9585
28.6899	8.2052	-6.69	-2.0389	2.3487	5.6103	-9.0613	32.2981	732.7106	-69.1174	290.729	55.1428	739.4049	-0.0592	0.0182	-0.0073	-0.0462	0.0165	0.9585
28.7014	13.7571	2.6945	-3.7171	-1.0978	9.8171	3.0026	33.3988	723.3776	-70.1635	286.409	55.2274	726.0956	-0.0592	0.0182	-0.0073	-0.0462	0.0165	0.9585
28.713	20.2548	20.066	-5.8502	-7.4288	14.9469	25.372	34.1222	712.9564	-70.9076	281.6808	55.2176	712.1259	-0.0592	0.0182	-0.0073	-0.0462	0.0165	0.9585
28.7246	26.8116	47.7441	-8.2853	-17.4602	20.4636	61.0806	34.7704	701.3958	-71.2423	276.5524	54.9057	697.3908	-0.0592	0.0182	-0.0073	-0.0462	0.0165	0.9585
28.7361	31.7749	87.3319	-10.6448	-31.7405	25.2637	112.2206	35.6511	688.2982	-71.0017	270.9026	54.0259	681.4202	-0.0592	0.0182	-0.0073	-0.0462	0.0165	0.9585
28.7477	32.5516	138.8094	-12.2423	-50.222	27.5193	178.8319	36.9733	672.8182	-70.0222	264.4271	52.3468	663.3142	-0.0592	0.0182	-0.0073	-0.0462	0.0165	0.9585
28.7593	26.7456	200.5742	-12.1109	-72.2752	25.2081	258.959	38.807	653.6261	-68.1213	256.6271	49.6705	641.739	-0.0592	0.0182	-0.0073	-0.0462	0.0165	0.9585
28.7709	14.5201	270.9807	-9.6426	-97.2211	17.5885	350.531	41.0143	629.1662	-65.1782	246.8964	45.9274	615.2134	-0.0592	0.0182	-0.0073	-0.0462	0.0165	0.9585
28.7824	-2.0385	347.1456	-4.3946	-123.9231	4.789	449.641	43.2629	597.9003	-61.1049	234.6211	41.1522	582.3179	-0.0592	0.0182	-0.0073	-0.0462	0.0165	0.9585
28.794	-20.5834	422.8494	4.1855	-150.1457	-12.9133	547.8519	45.0832	558.4992	-55.913	219.2611	35.5245	541.8706	-0.0592	0.0182	-0.0073	-0.0462	0.0165	0.9585
28.8056	-38.5782	491.9064	15.2805	-173.7694	-33.4734	636.6998	45.9381	510.266	-49.6671	200.5138	29.3069	493.3012	-0.0592	0.0182	-0.0073	-0.0462	0.0165	0.9585
28.8171	-54.1647	551.5765	27.2512	-193.9157	-54.116	712.3389	45.2585	453.5797	-42.5266	178.483	22.8628	437.0731	-0.0592	0.0182	-0.0073	-0.0462	0.0165	0.9585
28.8287	-66.6129	602.1363	38.6919	-210.7629	-72.7601	775.076	42.6619	390.0414	-34.8771	153.748	16.6977	374.7854	-0.0592	0.0182	-0.0073	-0.0462	0.0165	0.9585
28.8403	-75.5591	644.8612	48.4729	-224.8225	-87.9027	826.549	38.0225	322.4401	-27.1806	127.3576	11.2804	309.1256	-0.0592	0.0182	-0.0073	-0.0462	0.0165	0.9585
28.8519	-80.9576	680.5531	56.1135	-236.4008	-98.9155	867.98	31.6194	254.4386	-19.9911	100.7206	7.0115	243.5534	-0.0592	0.0182	-0.0073	-0.0462	0.0165	0.9585
28.8634	-82.8603	709.4583	61.4807	-245.5755	-105.7277	899.803	24.1445	190.1504	-13.7275	75.4424	4.004	181.9179	-0.0592	0.0182	-0.0073	-0.0462	0.0165	0.9585
28.875	-81.6533	731.5312	65.0721	-252.2683	-109.1089	922.29	16.6453	133.2567	-8.6597	52.9876	2.1042	127.5888	-0.0592	0.0182	-0.0073	-0.0462	0.0165	0.9585
28.8866	-77.9021	746.5552	67.3725	-256.3462	-109.9358	935.4423	10.0928	86.225	-4.8312	34.3592	0.98361	82.7852	-0.0592	0.0182	-0.0073	-0.0462	0.0165	0.9585
28.8981	-72.4666	754.4733	69.0774	-257.7319	-109.3624	939.5765	5.0392	49.964	-2.142	19.9546	0.34469	48.265	-0.0592	0.0182	-0.0073	-0.0462	0.0165	0.9585
28.9097	-66.1181	755.6328	70.594	-256.5381	-108.1966	935.4085	1.5461	24.1241	-0.4139	9.6605	0.0016627	23.67	-0.0592	0.0182	-0.0073	-0.0462	0.0165	0.9585
28.9213	-59.6141	751.0153	72.1571	-253.1274	-106.9983	924.379	-0.56373	7.3831	0.54583	2.9733	-0.14767	7.7219	-0.0592	0.0182	-0.0073	-0.0462	0.0165	0.9585
28.9329	-53.4343	742.125	73.7008	-248.0945	-105.8804	908.4387	-1.6502	-2.1269	0.95546	-0.83659	-0.16654	-1.3465	-0.0592	0.0182	-0.0073	-0.0462	0.0165	0.9585
28.9444	-47.9261	730.8828	74.8935	-242.1963	-104.6038	889.9871	-2.0125	-6.4313	1.0157	-2.5653	-0.12195	-5.4762	-0.0592	0.0182	-0.0073	-0.0462	0.0165	0.9585
28.956	-43.2465	719.1614	75.5054	-236.1766	-102.9597	871.2415	-1.9535	-7.3456	0.86761	-2.934	-0.031559	-6.3862	-0.0592	0.0182	-0.0073	-0.0462	0.0165	0.9585
28.9676	-39.4761	708.5844	75.3835	-230.6666	-100.8151	854.112	-1.6627	-6.3317	0.63509	-2.5243	0.064191	-5.483	-0.0592	0.0182	-0.0073	-0.0462	0.0165	0.9585
28.9791	-36.5421	700.285	74.7542	-226.0915	-98.396	839.854	-1.3019	-4.4368	0.37941	-1.7578	0.16575	-3.751	-0.0592	0.0182	-0.0073	-0.0462	0.0165	0.9585
28.9907	-34.4072	694.8865	73.8282	-222.6808	-95.9306	829.1036	-0.94426	-2.3549	0.15816	-0.91393	0.24736	-1.8461	-0.0592	0.0182	-0.0073	-0.0462	0.0165	0.9585
29.0023	-32.9115	692.6949	72.8411	-220.539	-93.6236	822.0935	-0.64557	-0.45516	-0.020248	-0.14781	0.3155	-0.093031	-0.0592	0.0182	-0.0073	-0.0462	0.0165	0.9585
29.0139	-31.9331	693.7915	71.8048	-219.6917	-91.4506	818.8116	-0.4095	1.0734	-0.13891	0.46637	0.35095	1.3324	-0.0592	0.0182	-0.0073	-0.0462	0.0165	0.9585
29.0254	-31.2637	698.0163	70.699	-220.0816	-89.3201	818.9492	-0.25273	2.2058	-0.2098	0.91604	0.36451	2.4216	-0.0592	0.0182	-0.0073	-0.0462	0.0165	0.9585
29.037	-30.7104	704.9754	69.4659	-221.5718	-87.1075	821.9833	-0.15545	2.9786	-0.23989	1.2184	0.35699	3.1968	-0.0592	0.0182	-0.0073	-0.0462	0.0165	0.9585
29.0486	-30.0405	714.0225	68.0956	-223.9442	-84.7341	827.0779	-0.11613	3.4695	-0.24024	1.4053	0.34105	3.7356	-0.0592	0.0182	-0.0073	-0.0462	0.0165	0.9585
29.0601	-29.0708	724.3374	66.6306	-226.9227	-82.1868	833.2514	-0.097654	3.7557	-0.22667	1.5106	0.32426	4.0945	-0.0592	0.0182	-0.0073	-0.0462	0.0165	0.9585
29.0717	-27.5695	734.9852	65.0826	-230.1972	-79.4128	839.3698	-0.099856	3.9119	-0.20401	1.566	0.30732	4.3424	-0.0592	0.0182	-0.0073	-0.0462	0.0165	0.9585
29.0833	-25.3887	745.0361	63.4883	-233.4633	-76.4003	844.3399	-0.092099	3.9904	-0.17439	1.5945	0.28009	4.5187	-0.0592	0.0182	-0.0073	-0.0462	0.0165	0.9585
29.0949	-22.3705	753.6481	61.8096	-236.4553	-73.0622	847.1771	-0.076912	4.0343	-0.147	1.6111	0.25051	4.6578	-0.0592	0.0182	-0.0073	-0.0462	0.0165	0.9585
29.1064	-18.4434	760.1401	60.0463	-238.9585	-69.3728	847.1317	-0.051727	4.0521	-0.12687	1.6205	0.22461	4.7457	-0.0592	0.0182	-0.0073	-0.0462	0.0165	0.9585
29.118	-13.6029	764.0167	58.1646	-240.8148	-65.2984	843.6832	-0.027891	4.0555	-0.13124	1.6252	0.22498	4.7958	-0.0592	0.0182	-0.0073	-0.0462	0.0165	0.9585
29.1296	-7.9289	765.0566	56.1674	-241.937	-60.8676	836.6832	-0.014871	4.0062	-0.16211	1.6122	0.25832	4.7535	-0.0592	0.0182	-0.0073	-0.0462	0.0165	0.9585
29.1411	-1.5536	763.3129	54.0932	-242.3098	-56.1572	826.3055	-0.020631	3.8578	-0.22307	1.5608	0.33356	4.5601	-0.0592	0.0182	-0.0073	-0.0462	0.0165	0.9585
29.1527	5.3158	759.1205	52.0118	-241.9891	-51.2955	813.0862	-0.035359	3.5267	-0.32272	1.4361	0.45673	4.1168	-0.0592	0.0182	-0.0073	-0.0462	0.0165	0.9585
29.1643	12.4629	753.0748	50.0419	-241.0991	-46.4584	797.8578	-0.064875	2.9333	-0.45183	1.199	0.62026	3.3343	-0.0592	0.0182	-0.0073	-0.0462	0.0165	0.9585
29.1759	19.6423	746.0128	48.3028	-239.8357	-41.8351	781.699	-0.092979	1.9809	-0.61567	0.80465	0.82245	2.1006	-0.0592	0.0182	-0.0073	-0.0462	0.0165	0.9585
29.1874	26.6431	738.9523	46.9697	-238.4525	-37.6591	765.8463	-0.11314	0.57827	-0.79506	0.21312	1.0356	0.31085	-0.0592	0.0182	-0.0073	-0.0462	0.0165	0.9585
29.199	33.307	732.9628	46.199	-237.2251	-34.1383	751.5438	-0.093775	-1.3172	-0.96279	-0.59462	1.2136	-2.089	-0.0592	0.0182	-0.0073	-0.0462	0.0165	0.9585
29.2106	39.4999	728.9659	46.1692	-236.3939	-31.4886	739.8304	-0.0010742	-3.6538	-1.0719	-1.5936	1.2848	-5.0269	-0.0592	0.0182	-0.0073	-0.0462	0.0165	0.9585
29.2221	45.1367	727.6236	46.9798	-236.132	-29.8341	731.4284	0.1984	-6.2178	-1.0597	-2.6864	1.1565	-8.2321	-0.0592	0.0182	-0.0073	-0.0462	0.0165	0.9585
29.2337	50.1473	729.1589	48.6951	-236.4846	-29.2637	726.589	0.52337	-8.5401	-0.83366	-3.6645	0.70254	-11.1191	-0.0592	0.0182	-0.0073	-0.0462	0.0165	0.9585
29.2453	54.4888	733.3262	51.3052	-237.3622	-29.7918	725.0619	0.98778	-9.8137	-0.27766	-4.1741	-0.229	-12.6703	-0.0592	0.0182	-0.0073	-0.0462	0.0165	0.9585
29.2569	58.1439	739.4651	54.7128	-238.5634	-31.3384	726.1834	1.5714	-8.798	0.73724	-3.6784	-1.792	-11.3249	-0.0592	0.0182	-0.0073	-0.0462	0.0165	0.9585
29.2684	61.1559	746.6366	58.7242	-239.8214	-33.7133	728.9793	2.2143	-3.7657	2.3418	-1.4376	-4.1173	-4.9262	-0.0592	0.0182	-0.0073	-0.0462	0.0165	0.9585
29.28	63.5925	753.7271	63.0308	-240.8359	-36.6038	732.288	2.797	7.4371	4.617	3.4647	-7.2429	9.2286	-0.0592	0.0182	-0.0073	-0.0462	0.0165	0.9585
29.2916	65.5821	759.4704	67.2537	-241.2783	-39.6132	734.7937	3.1162	27.2119	7.5522	12.0358	-11.0366	34.1573	-0.0592	0.0182	-0.0073	-0.0462	0.0165	0.9585
29.3031	67.2534	762.4729	70.933	-240.796	-42.2626	735.0704	2.8697	57.7607	10.9437	25.1827	-15.0779	72.6407	-0.0592	0.0182	-0.0073	-0.0462	0.0165	0.9585
29.3147	68.7568	761.1847	73.6235	-238.9977	-44.0849	731.5463	1.6298	100.3397	14.2949	43.3913	-18.5284	126.2806	-0.0592	0.0182	-0.0073	-0.0462	0.0165	0.9585
29.3263	70.1928	753.9284	74.863	-235.457	-44.6175	722.5538	-1.1839	154.2376	16.7238	66.2825	-20.0159	194.1765	-0.0592	0.0182	-0.0073	-0.0462	0.0165	0.9585
29.3379	71.5466	738.981	74.2653	-229.7258	-43.5144	706.3906	-6.3091	215.4895	17.061	92.0808	-17.7689	271.3218	-0.0592	0.0182	-0.0073	-0.0462	0.0165	0.9585
29.3494	72.6195	714.7401	71.5756	-221.3724	-40.6182	681.5146	-13.7928	276.3868	14.0089	117.4803	-10.2997	347.9297	-0.0592	0.0182	-0.0073	-0.0462	0.0165	0.9585
29.361	73.0558	679.9979	66.7886	-210.054	-36.0581	646.7961	-22.4556	329.0075	7.4119	139.2078	1.8707	413.8318	-0.0592	0.0182	-0.0073	-0.0462	0.0165	0.9585
